# xmcd
#
# Track frame offsets:
#	150
#	18140
#	37680
#	52933
#	72750
#	92053
#	105557
#	121100
#	138208
#	159576
#	177347
#	198634
#	214268
#	232018
#	246847
#	258038
#	273628
#	286341
#
# Disc length: 4024
#
# Revision: 3
# Processed by: cddbd v1.5.1PL0 Copyright (c) Steve Scherf et al.
# Submitted via: DiscPlay 4.0.3
# Normalized: r1:DSETVAR1,TSWAP
#
DISCID=f40fb612
DTITLE=Various Artist - Hott Country 18
DYEAR=1900
DGENRE=
TTITLE0=Clint Black/Martina MCbride - Still Holding On
TTITLE1=Toby keith - We Were In Love
TTITLE2=Kenney Chesney - She's Got It All
TTITLE3=Trisha yearwood - How Do I Live
TTITLE4=John Michael Montgomery - How Was I To Know
TTITLE5=Billy Yates - Flowers
TTITLE6=Sherrie Austin - Lucky In Love
TTITLE7=Diamond Rio - How Your Love Makes Me feel
TTITLE8=Alabama - Dancin' Shagin' On The Boulevard
TTITLE9=Lila McCann - Down Came A Blackbird
TTITLE10=Raybon Bros - Butterfly Kisses
TTITLE11=Rick Tippe - The Real Thing
TTITLE12=Deryl Dodd - Movin' Out To The Country
TTITLE13=Michelle Wright - What Love Looks Like
TTITLE14=Julian Austin - Little Ol' Kisses
TTITLE15=Farmers Daughter - Now That I'm On My Own
TTITLE16=Crawford West - Summertime Girls
TTITLE17=Scooter Lee - He's My Little jalapeno
EXTD=
EXTT0=
EXTT1=
EXTT2=
EXTT3=
EXTT4=
EXTT5=
EXTT6=
EXTT7=
EXTT8=
EXTT9=
EXTT10=
EXTT11=
EXTT12=
EXTT13=
EXTT14=
EXTT15=
EXTT16=
EXTT17=
PLAYORDER=
